<svg xmlns="http://www.w3.org/2000/svg" version="1.1" xmlns:xlink="http://www.w3.org/1999/xlink"
    xmlns:svgjs="http://svgjs.dev/svgjs" viewBox="0 0 1422 800" opacity="0.45">
    <defs>
        <linearGradient x1="50%" y1="0%" x2="50%" y2="100%" id="ssscribble-grad">
            <stop stop-color="#221f1f" stop-opacity="1" offset="0%"></stop>
            <stop stop-color="rgba(73,70,70,0.986)" stop-opacity="1" offset="100%"></stop>
        </linearGradient>
    </defs>
    <g fill="none" stroke-width="1" stroke="url(#ssscribble-grad)" stroke-linecap="round">
        <path
            d="M1512.55 252.56C1580.85 278.52 1626.41 301.25 1641.99 321.17 1626.61 341.53 1581.97 359.98 1516.1 377.59 1439.36 397.1 1363.15 417.69 1298.1 441.07 1252.35 468.69 1230.42 501.58 1232.65 541.37 1257.9 587.09 1298.94 640.68 1347.99 701.93 1399.96 766.45 1444.61 834.87 1476.02 903.46 1492.36 965.5 1489.43 1018.81 1468.04 1057.76 1430.38 1078.56 1379.36 1078.81 1319.61 1057.5 1253.91 1020.57 1187.65 970.81 1124.5 916.69 1065.42 871.97 1013.92 843.45 970.75 840.57 935.43 869.02 908.21 927.22 887.72 1009.09 873.76 1101.07 864.02 1188.51 856.67 1254.34 852.88 1285.37 849.08 1274.96 843.91 1224.76 840.06 1149.43 833.49 1065.57 823.54 995.7 813.86 961.72 800.35 972.89 782.77 1029.34 765.19 1117.98 743.48 1215.55 717.52 1294.83 691.57 1333.34 661.97 1319.25 628.99 1258.03 596.02 1167.02 559.71 1070.24 520.44 992.1 481.43 950.75 439.91 953.69 396.67 996.29 354.74 1067.65 312.45 1146.24 271.25 1212.24 233.62 1252.52 199.49 1255.42 170.83 1221.02 148.7 1155.64 134.55 1071.05 129.86 981.84 133.02 899.77 145.88 836.93 167.82 798.93 193.83 787.73 224.45 800.17 256.13 829.47 281.86 871.48 300.48 914.97 307.48 952.65 298.23 982.81 272.26 998.13 228.89 997.72 170.45 983.35 100.65 954.96 25.52 915.96 -46.67 867.85 -108.87 814.76 -153.14 760.09 -174.4 702.77 -169.37 647.68 -138.27 596.31 -87.87 545.58 -24.06 499.49 42.65 458.12 98.51 417.76 135.51 381.53 145.76 349.06 125.05 316.96 76.85 287.97 8.55 262.01 -68.58 236.05 -138.71 213.75 -189.73 195.29 -214.9 177.19 -208.56 163.6 -172.56 155 -113.23 147.43 -39.31 145.42 38.09 149.06 108.84 153.33 163.93 162.33 197.86 174.65 207.63 184.35 195.13 193.57 165.01 199.07 120.97 195.45 72.59 182.47 27.23 156.83 -11.69 117.24 -36.56 63.29 -44.81 -4 -36.92 -78.81 -12.03 -157.95 27.07 -233.98 77.93 -297.3 136.54 -342.15 198.75 -361.61 263.09 -354.27 324.93 -320.33 382 -265.3 434.6 -203.12 480.2 -143.68 518.89 -101.44 551.6 -90.19 578.38 -114.23 600.55 -173.53 618.3 -258.55 633.52 -354.04 647.64 -440.05 659.45 -497.32 671.89 -512.66 685.95 -481.34 699.15 -413.23 714.94 -324.09 733.85 -238.21 752.59 -182.12 774.82 -170.63 800.78 -209.13 826.73 -288.39 855.8 -383.34 887.63 -466.85 919.27 -518.18 953.3 -521.73 989.05 -477.74 1023.95 -397.86 1059.6 -301.6 1094.88 -211.62 1127.85 -146.77 1158.74 -119.45 1185.97 -131.44 1208.78 -178.23 1225.87 -244.53 1235.78 -313.35 1239.71 -372.07 1235.49 -405.13 1222.9 -406.55 1205.84 -376.65 1182.63 -319.23 1155.43 -243.86 1130.36 -159.09 1107.4 -76.93 1090.55 -5.97 1085.47 49.35 1092.97 84.75 1115.74 101.08 1154.64 99.28 1208.41 84.61 1274.37 62.57 1346.76 33.99 1420.29 6.95 1487.48 -14.94 1557.58 -38.44 1549.67 -32.24 1474.48 -6.16 1411.71 17.54 1350.18 45.04 1300.87 74.49 1274.89 105.83 1276.19 137.2 1306.5 167.4 1362.65 198.04 1435.41 226.61 1512.55 252.56Q1512.55 252.56 1512.55 252.56"
            opacity="0.36"></path>
        <path
            d="M1464.82 227.54C1529.5 251.87 1574.69 277.57 1594.06 304.8 1586.34 332.46 1551.79 362.46 1496.12 395.43 1427.23 429.8 1354.2 468.25 1286.27 511.36 1231.04 556.46 1194.12 606.52 1177.88 661.1 1183.26 716.13 1206.51 773.54 1242.5 830.98 1287.89 883.57 1334.04 930.98 1374.98 969.38 1418.44 1001.67 1411.07 969.31 1361.73 910.21 1314.36 865.95 1260.05 823.82 1202.31 792.02 1142.2 779.96 1083.77 790.64 1029.07 827.15 977.63 887.35 931.99 965.57 892.29 1052.01 857.46 1132.92 828.01 1196.58 802.95 1231.25 781.77 1231.38 763.35 1196.24 746.49 1132.44 731.83 1056.31 717.22 982.55 701.74 929.28 687.15 912.14 670.75 935.61 651.98 996.83 633.42 1082.97 612.08 1174.06 587.75 1247.58 563.41 1285.16 536.66 1276.48 507.82 1225.09 479.18 1144.08 448.88 1052.35 417.57 970.59 387.16 915.7 356.69 897.67 327.2 917.11 299.91 968.96 275.11 1038.19 254.11 1108.54 231.16 1184.26 223.37 1144.45 240.72 1041.44 257.92 958.26 280.12 878.41 305.41 810.79 338.78 745.93 366.96 744.98 345.06 787.64 311.63 823.84 264.63 856.93 205.79 882.97 139.5 902.84 69.78 911.5 2.68 909.1 -55.01 897.88 -98.08 877.23 -121.3 849.44 -122.91 815.61 -101.82 777.98 -60.33 738.78 -6.13 696.93 55.27 655.9 114.76 617.01 161.05 577.41 188.44 540.97 191.34 508.33 167.16 475.6 119.5 446.9 54.82 422.56 -17.51 398.23 -84.18 378.83 -135.01 364.17 -164.28 349.41 -166.22 339.14 -141.28 332.85 -93.75 325.84 -29.64 321.79 42.28 319.49 113.62 314.54 176.04 308.95 223.39 300.6 251.57 286.22 259.62 265.75 249.31 237.01 222.17 199.45 184.81 152.01 143.12 94.63 99.86 31.09 62.83 -38.22 35.93 -109.24 19.64 -174.88 17.68 -231.97 29.69 -274.34 54.13 -297.5 89.95 -298.81 134.27 -277.22 185.68 -238.33 240.65 -185.58 296.47 -127.74 353.16 -78.5 407.22 -45.21 457.41 -37.31 505 -60.63 547.77 -113.69 585.87 -190.64 620.78 -278.82 651.76 -363.9 679.61 -429.48 705.2 -462.65 728.93 -456.25 751.62 -410.75 773.22 -338.38 794.83 -253.8 817.01 -177.61 838.92 -131.03 861.94 -124.82 886.27 -162.4 910.61 -235.92 935.68 -324.55 961.18 -405.87 986.4 -462.28 1011.5 -478.59 1035.78 -452.05 1058.99 -389.39 1080.35 -304.01 1098.9 -214.15 1121.32 -111.13 1137.96 -106.67 1129.5 -187.8 1119.27 -252.53 1104 -307.17 1084.82 -342.03 1066.51 -353.2 1047.75 -336.78 1031.17 -295.99 1021.66 -235.46 1019.26 -162.95 1026.72 -86.79 1046.6 -11.94 1078.93 53.74 1123.96 106.6 1179.59 145.65 1243.71 169.77 1312.31 181.04 1379.34 180.15 1440.29 171.53 1489.13 158.89 1521.15 141.41 1532.93 125.13 1522.59 112.27 1493.08 99.86 1446.5 93.02 1388.89 92.07 1330.69 93.11 1278.2 99.74 1240.06 111.27 1224.52 124.19 1233.61 140.9 1267.7 160.64 1323.35 180.8 1392.48 203.2 1464.82 227.54Q1464.82 227.54 1464.82 227.54"
            opacity="1.00"></path>
        <path
            d="M1417.87 355.15C1478.68 377.86 1522.87 404.57 1545.03 435.09 1543.85 465.67 1518.59 500.15 1473.12 538.27 1413.32 576.34 1346.04 617.7 1278.98 661.61 1218.74 704.33 1171.13 748.05 1139.66 791.05 1126.53 829.99 1130.72 865.13 1149.57 893.99 1181.39 914.84 1219.86 926.14 1259.95 926.1 1299.77 916.49 1332.78 895.68 1356.06 864.94 1369.64 830.58 1370.5 793.1 1359.09 757.65 1336.85 732.44 1304.57 719.75 1264.66 724.59 1218.25 750.19 1168.25 796.04 1116.98 859.96 1064.28 935.12 1013.3 1014.58 965.23 1088.31 918.79 1145.65 876.28 1178.99 837.78 1182.32 801.69 1156.43 769.21 1104.4 739.8 1035.36 712.24 965.01 686.8 905.18 662.86 869.37 639.85 867.83 617.47 901.5 595.27 965.68 573.31 1048.36 551.05 1132.8 528.33 1200.62 505.62 1237.05 483 1233.2 460.71 1191.17 438.68 1120.59 417.46 1035.87 397.64 953.98 370.43 872 332.73 906.69 325.54 996.61 324.67 1061.92 328.79 1114.31 337.94 1145.13 348.72 1151.1 363.5 1129.65 381.19 1084.63 397.45 1021.3 413.65 947.88 427.56 872.83 434.97 801.72 436.06 741.95 428.53 696.97 410.17 668.01 380.97 655.16 340.57 655.83 290.47 669.1 232.17 689.52 168.7 712.96 104.96 739.69 44.48 763.38 -7.59 781.81 -58.05 801.18 -41.68 796.88 22.14 776.39 76.39 757.81 132.82 735.93 183.86 712.14 220.56 686.85 239.14 661.11 235.83 635.87 209.17 610.27 162.68 585.9 101.87 563.18 34.36 540.47 -28.71 519.95 -78.96 501.32 -111.6 482.32 -120.99 464.46 -106.6 446.92 -71.11 427.88 -18.24 407.67 45.44 385.05 113.33 359.21 178.29 329.12 234.27 293.59 276.88 253.56 303.3 207.21 313.1 154.53 306.14 98.81 286.02 38.91 256.7 -22.82 219.91 -81.26 182.25 -135.49 147.79 -181.25 106.53 -223.59 88.32 -202.64 113.06 -142.64 141.52 -94.41 177.33 -46.28 218.27 -6.6 263.89 14.76 311.43 14.2 359.14 -12.02 407.89 -63.1 454.8 -134 499.05 -215.95 542.48 -296.35 582.69 -363.49 619.64 -405.5 655.43 -415.42 688.3 -390.69 718.53 -335.26 748.03 -262.14 775.48 -184.1 801.14 -118.02 826.59 -80.48 850.65 -78.93 873.37 -115.36 896.08 -183.18 916.9 -265.32 935.7 -343.51 954.27 -403.19 970.42 -430.18 983.75 -419.87 996.36 -375.3 1005.57 -304.62 1010.98 -221.46 1015.24 -139.6 1015.37 -72.78 1011.3 -30.24 1006.41 -16.92 997.88 -31.76 986.42 -68.84 976.01 -122.31 964.67 -179.76 954.06 -231.27 947.12 -281.82 973.51 -248.39 1015.4 -172.89 1056.13 -107.67 1105.92 -39 1163.28 27.84 1224.56 91.08 1287.51 145.7 1347.95 190.31 1400.92 225.36 1443.05 250.26 1470.26 266.71 1480.73 275.14 1472.82 278.38 1446.85 278.8 1407.52 275.17 1357.35 271.79 1302.28 270.27 1230.39 267.93 1185.07 282.32 1230.24 300.53 1284.98 314.26 1350.36 332.43 1417.87 355.15Q1417.87 355.15 1417.87 355.15"
            opacity="0.75"></path>
        <path
            d="M1371.55 522.4C1428.31 543.49 1471 567.32 1495.09 593.54 1499.38 619.5 1482.49 647.33 1446.92 676.25 1396.88 704.08 1337.28 731.82 1274.23 758.26 1213.16 781.98 1159.43 802.55 1116.96 818.42 1081.7 831.97 1102.07 815.17 1144.9 784.21 1180.7 758.99 1215.92 730.34 1247.33 701.26 1284.39 669.61 1301.51 674.68 1280.61 726.07 1256.25 780.01 1225.26 845.64 1189.47 917.93 1149.26 988.94 1106.85 1052.65 1063.8 1101.26 1019.29 1128.76 975.89 1131.5 934.44 1108.31 893.23 1064.31 854.61 1004.33 818.82 937.92 783.73 878.67 751.36 835.1 721.6 816.48 692.34 828.67 665.32 870.23 640.41 935.57 615.65 1013.94 592.71 1091.6 571.62 1153.83 550.53 1188.92 531.79 1189.34 515.46 1156.12 499.3 1096.16 485.84 1020.02 475.32 941.14 461.96 847.57 453.54 822.23 458.79 886.21 463.68 945.7 471.44 1004.06 481.32 1052.29 489.75 1085.71 498.53 1097.67 506.24 1087.35 509.52 1056.51 509.12 1008.22 503.3 948.15 489.98 880.56 469.11 812.44 439.8 748.9 402.26 692.2 356.75 646.5 304.38 612.65 248.06 590.59 189.36 579.53 131.6 577.24 78.98 583.51 34.21 594.33 0.98 607.04 -18.41 622.97 -22.01 637.27 -9 648.42 18 659.3 58 665.63 107.17 667.16 158.32 667.38 207.84 662.98 249.74 654.36 277.18 644.8 287.86 631.76 279.4 615.71 251.14 599.37 206.31 580.57 149.55 559.48 86.91 538.39 27.58 515.51 -21.57 490.77 -56.73 465.75 -72.53 438.31 -67.83 408.1 -44.14 376.94 -3.33 342.27 49.98 303.79 110.86 264 173.66 220.21 233.01 172.78 284.78 125.08 325.27 75.14 352.63 24.58 365.67 -22.75 365.44 -67.19 353.95 -105.97 331.9 -136.19 303.91 -156.53 273.36 -164.64 240.75 -160.98 211.28 -144.24 187.19 -115.19 167.78 -79.3 156.54 -37.49 153.72 5.18 157.89 40.35 170.12 65.17 189.25 74.05 214.2 62.41 244.08 30.03 277.37 -22.19 314.03 -89.23 352.09 -164.77 390.32 -239.73 429.88 -303.69 468.35 -348.38 505.04 -366.43 541.95 -355.81 576.59 -317.05 608.64 -256.04 640.61 -185.31 669.96 -115.37 696.56 -59.58 723.12 -30.52 747.01 -33.06 768.1 -68.14 789.19 -130.36 806.98 -205.88 821.51 -280.09 841.55 -358.94 864.87 -327.12 868.43 -229.15 870.01 -150.84 869 -77.12 865.99 -17.66 863.09 28.21 863.06 -24.67 872.48 -95.35 885.86 -145.69 905.02 -187.84 931.02 -216.87 964.02 -231.65 1004.22 -228.74 1051.26 -209.29 1102.99 -175.24 1158.79 -129.45 1216.31 -76.04 1271.76 -16.79 1323.24 43.25 1367.25 100.97 1400.7 156.48 1421.37 206.02 1427.15 248.92 1418.61 286.46 1395.3 317.41 1358.99 342.76 1315.11 363.43 1266.04 380.33 1217.06 394.87 1160.27 412.36 1143.77 447.15 1194.09 468.59 1247.42 483.45 1308.88 501.3 1371.52 522.39Q1371.55 522.4 1371.55 522.4"
            opacity="0.73"></path>
        <path
            d="M1324.55 581.18C1377.32 600.65 1418.34 619.32 1443.91 636.95 1453.01 654.29 1443.87 670.05 1417.93 683.62 1378.11 696.15 1327.66 705.59 1271.18 711.23 1212.91 714.98 1157.4 714.13 1108.44 708.28 1068.76 700.47 1040.41 687.85 1024.01 670.94 1020.1 653.97 1026.93 634.86 1042.45 615.5 1066.17 600.57 1093.89 589.47 1122.88 584.89 1153.07 590.23 1180.06 605.84 1202.12 633.31 1220.16 672.4 1231.15 722.58 1234.91 781.93 1232.82 845.74 1223.76 911.03 1208.64 972.38 1188.49 1023.59 1163.8 1060.61 1135.82 1078.92 1104.69 1077.12 1071.9 1054.5 1038.53 1013.21 1003.68 960.48 969.39 901.26 936.34 844.08 902.83 799.54 871.11 773.12 841.57 770.42 811.96 794.03 784.69 841.14 759.96 905.98 735.23 979.3 713.05 1050.1 693.58 1106.83 674.11 1140.38 657.82 1144.44 644.63 1119.34 631.44 1069.87 621.35 1003.43 614.24 930.28 607.06 860.34 602.72 803.08 600.91 765.09 598.63 750.33 598.36 758.63 599.46 786.61 599.1 830.86 598.99 882.71 598.16 934.61 594.17 982.27 587.83 1017.59 577.96 1037 563.08 1040 543.16 1025.07 517.4 994.41 485.78 950.45 448.06 897.13 404.51 838.88 356.93 777.81 305.64 718.93 252.46 665.04 200.49 616.51 151.09 576.06 107.1 543.86 58.46 510.66 37.43 484.16 69.08 482.73 103.77 485.38 146.61 487.6 193.9 488.25 239.39 489.93 280.54 488.89 312.84 484.57 331.27 480.43 334.68 472.65 321.73 461.03 292.31 449.41 249.32 433.92 196.55 414.45 138.77 394.99 83.46 372 36.1 345.71 -0.34 319.41 -21.04 289.82 -24.51 257.25 -11.53 224.86 17.38 189.83 59.23 152.83 110.5 116.87 167.11 80.06 224.64 43.68 279.63 10.32 328.32 -20.48 368.19 -46.93 406.71 -74.48 414.01 -78.88 390.3 -52.47 366.52 -26.44 340.92 5.7 315.77 41.25 290.46 73.99 268.95 103.01 252.39 123.99 239.35 131.66 232.52 124.93 231.79 101.66 235.57 61.99 244.98 7.8 259.15 -57.2 277.03 -126.47 298.41 -194.19 322.27 -252.71 348.43 -294.97 375.81 -315.95 403.53 -312.18 432.38 -285.19 460.7 -237.23 487.88 -174.81 515.47 -109.17 541.45 -48.46 565.43 -2.83 589.5 18.42 611.39 12.4 630.85 -21.13 650.32 -77.85 666.91 -146.68 680.76 -216.15 700.39 -297.83 728.62 -306.58 738.96 -233.21 746.56 -165.04 753.76 -93.14 761.33 -26.14 771.22 29.42 782.73 67.9 796.82 87.07 814.61 86.13 836.24 67.98 862.47 37.04 893.2 -4.03 929.01 -47.64 969.9 -88.46 1014.32 -124.83 1062.56 -150.71 1113.39 -164.29 1164.05 -166.24 1213.95 -155.12 1260.73 -132.61 1301.55 -100.18 1334.97 -60.09 1358.62 -15.16 1371.44 34.19 1372.09 84.34 1360.05 133.28 1337.55 182.14 1304.72 227.67 1264 269.22 1220.74 308.81 1176.81 344.23 1136.52 375.8 1105.66 405.48 1086.03 432.11 1080.57 456.29 1091.55 479.43 1117.98 501.04 1158.28 521.62 1209.49 541.91 1266.77 561.71 1324.55 581.18Q1324.55 581.18 1324.55 581.18"
            opacity="0.92"></path>
        <path
            d="M1277.52 479.68C1326.22 497.53 1365.26 512.05 1391.65 523.26 1404.63 534.39 1402.26 542.05 1385.22 546.22 1355.51 550.17 1315.01 550.57 1267.02 547.57 1214.67 544.64 1161.5 538.79 1110.83 530.67 1026.66 518.75 977.35 507.38 964.89 509.07 987.38 537.39 1028.78 596.05 1073.63 688.03 1118.9 798.06 1147.43 910.94 1155.88 996.22 1149.98 1027.97 1126.14 994.52 1090.44 904.69 1069.5 852.53 1047.12 801.47 1024.05 758.19 999.89 730.18 975.82 720.32 952.37 731.42 928.49 763.82 905.71 814.13 884.4 876.92 862.98 944.57 843.25 1008.5 825.4 1059.82 807.55 1091.62 792.02 1098.71 778.68 1080.96 765.23 1041.61 753.76 985.54 743.98 920.26 733.77 853.31 724.79 792.51 716.57 744.16 707.26 712.67 697.94 700.16 687.96 706.12 661.8 767.49 626.87 858.51 577.75 937.16 514.3 981.16 434.53 969.3 342.47 910.39 250.85 817.77 167.13 713.81 107.48 617.43 82.78 531.65 100.08 467.23 158.08 421.05 195.68 402.91 237.22 387.53 279.5 373.9 317.42 362.25 349.4 351.07 372.23 339.55 382.38 328.87 379.5 316.99 362.99 303.39 333.07 289.99 292.22 274.47 243.52 256.63 190.6 238.78 139.49 219.03 94.46 197.67 57.68 176.51 33.41 154.15 23.2 131.17 26.71 109.04 44.37 87.15 74.42 66.42 114.47 47.67 161.88 31.35 213.32 18.56 317.33 2.89 403.82 8.53 459.69 39.3 480.1 80.67 470.63 133.38 443.28 179.23 401.72 191.37 364.18 160.93 338.95 79.77 321.35 -36.03 321.22 -159.05 335.97 -246.6 346.29 -265.65 359.29 -264.76 374.35 -243.35 390.65 -205.08 408.25 -152.8 426.59 -92.74 445.5 -34.35 464.6 16.47 483.49 52.3 502.52 66.52 521.06 57.64 538.91 25.85 556.75 -25.45 573.48 -87.57 589.21 -151.69 605.08 -210.96 620.24 -256.03 634.98 -281.55 650.3 -285.77 665.76 -267.39 681.83 -229.32 699.16 -175.97 717.85 -113.29 738.45 -48.05 785.56 67.93 844.47 133.4 917.07 138.82 997.32 90.71 1086.09 20.15 1174.44 -43.1 1248.57 -88.3 1300.36 -95.72 1317.11 -69.04 1298.4 -15.72 1243.92 54.42 1166.07 128.19 1127.71 167.24 1091.91 204.78 1061.94 240.09 1041.96 275.46 1032.82 308.12 1036.2 337.83 1053.29 367.31 1082.81 393.9 1123.13 417.54 1171.68 441.08 1224.61 461.84 1277.52 479.68Q1277.52 479.68 1277.52 479.68"
            opacity="0.21"></path>
        <path
            d="M1230.55 307.71C1313.05 340.15 1355.23 361.23 1348.47 373.02 1298.11 386.87 1215.12 396.06 1120.03 406.7 1029.96 428.11 960.68 461.8 919.28 514.91 907.94 586.15 920.19 676.86 946 778.48 983.52 871.2 1017.61 942.25 1041.66 971.1 1060.53 951.84 1064.89 885.63 1056.23 792.1 1041.42 712.22 1017.67 673.09 988.63 699.23 957.66 788.68 925.01 909.84 892.56 1012.83 860.12 1052.99 829.4 1011.2 799.18 909.74 767.03 788.92 731.76 693.02 690.34 650.06 642.76 668.12 584.97 729.67 516.09 805.62 442.04 877.35 361.37 916.11 281.32 915.22 212.98 879.03 162.26 814.09 139.81 735.7 147.43 648.37 187.62 566.64 253.9 496.35 325.2 431.34 389.73 378.29 427.57 334.77 421.8 293.97 373.05 258.08 290.55 225.63 194.35 193.18 115.96 165.71 75.3 145.32 77.8 127.64 125.27 121.67 203.86 130.44 297.91 144.5 389.23 172.8 463.7 210.12 514.58 238.51 539.22 256.87 542.5 250.55 526.07 208.92 502.03 131.69 478.88 26.18 441.99 -143.53 498.01 95.39 544.15 72.86 576.59 -30.11 612.57 -144.7 652.63 -221.64 694.31 -235.27 742.85 -177.68 799.55 -74.03 859.82 43.28 928.95 138.59 1004.45 191.64 1077.61 196.58 1148.23 164 1207.18 113.81 1246.43 54.71 1260.26 10.58 1243.17 -10.64 1202.48 -13.74 1140.26 5.99 1070 40.81 1015.19 86.4 986.18 136.24 996.2 183.58 1049.39 232.98 1134.35 275.26 1230.55 307.71Q1230.55 307.71 1230.55 307.71"
            opacity="0.64"></path>
        <path
            d="M1183.55 217.36C1259.12 246.56 1302.91 274.71 1307.47 303.47 1275.56 334.74 1212.21 371.25 1131.4 416.72 1045.39 469.51 967.56 535.13 906.81 612.99 866.92 693.19 848.33 775.4 846.54 847.67 860.72 896.63 880.96 914.45 900.65 892.96 923.23 840.78 938.2 764.47 943.6 685.38 946.91 634.63 940.57 627.01 925.53 673.29 909.39 764.76 886.39 874.82 857.19 965.83 827.99 1005.59 793.97 978.2 755.03 897.29 715 789.84 668.22 688.69 614.3 620.26 558.3 597.85 495.23 619.33 427.64 669.42 362.95 737.07 300.78 797.01 248.33 835.82 211.84 853.18 195.81 841.9 205.3 808.47 235.64 757.92 287.27 698.1 351.88 637.48 411.29 573.25 458.01 515.2 478.66 466.22 462.83 417.5 413.12 378.06 337.55 348.86 250.82 319.65 177.03 302.06 131.6 295.71 119.22 289.62 144.91 294.54 201.03 308.16 277.54 318.18 361.91 329.91 441.69 335.46 510.5 323.89 561.52 293.25 594.25 237.62 609.18 160.55 611.31 65.98 606.69 -32.06 593.9 -112.57 582.65 -160.24 576.93 -159.25 570.27 -112.23 571.99 -27.71 582.93 68.46 594.23 138.11 614.41 159.59 643.61 119.85 672.81 28.85 709.65 -75.29 753.42 -155.49 797.55 -190.52 848.95 -166.29 906.22 -94.14 962.54 6.35 1021.88 108.84 1079.69 191.44 1149.22 251.74 1189.82 195.32 1143.22 139.99 1093.85 107.13 1035.67 89.6 980.57 87.42 945.85 92.56 936.77 109.16 960.41 132.97 1017.1 159.27 1096.8 188.15 1183.52 217.35Q1183.55 217.36 1183.55 217.36"
            opacity="0.82"></path>
        <path
            d="M1136.55 288.56C1204.85 314.52 1248.69 347.98 1262.08 388.75 1246.45 430.47 1202.85 480.84 1140.03 539.2 1066.1 597.84 990.85 661.75 922.67 725.74 865.15 780.63 822.51 824.45 794.44 848.43 780.47 849.72 776.55 824.24 778.12 773.25 786.68 711.73 794.45 646.09 798.14 593.65 803.26 574.15 801.66 593.25 792.2 652.84 782.71 741.82 765.19 839.55 739.24 918.83 713.28 957.34 680.11 942.38 640.65 881.63 601.15 792.05 555.54 695.9 505.43 614.79 456.76 562.06 406.24 544.24 357.67 557 316.1 596.25 282.75 645.96 262.7 693.44 256.75 737.5 268.61 764.8 299.1 773.95 340.26 770.21 392.23 751.5 447.12 723.23 490.92 688.04 519.74 650.1 525.36 613.87 501.96 576.14 452.85 543.28 384.55 517.32 307.41 491.37 239.37 473.54 191.88 462.32 168.34 449.6 175.17 440.32 208.94 430.52 263.63 413.81 332.07 389.77 404.8 353.5 476.93 304.35 540.88 239.78 593.2 161.71 634.09 80.21 662.91 -0.27 682.35 -66.55 692.91 -106.34 699.38 -111.81 705.43 -78.11 708.05 -16.04 714.18 65.32 725.93 144.89 737.06 195.63 755.19 205.35 781.14 166.85 807.1 87.59 839.66 -4.88 877.48 -83.86 914.69 -133.44 955.78 -137.77 998.14 -99.25 1037.08 -27.79 1073.35 61.12 1102.79 149.67 1123.36 227.7 1131.81 283.96 1124.95 316.69 1106.64 326.73 1073.47 320.17 1028.36 305.29 982.67 281.31 937.51 260.14 901.85 246.49 887.1 233.12 895.05 229.97 928.6 237.2 986.11 245.38 1059.41 262.61 1136.55 288.56Q1136.55 288.56 1136.55 288.56"
            opacity="0.07"></path>
        <path
            d="M1089.55 458.34C1150.24 481.05 1192.67 511.47 1212.3 548.15 1210.1 584.15 1184.77 624.82 1141.28 667.11 1084.66 705.24 1020.95 740.03 956.8 766.42 894.86 781.79 840.3 782.44 795.17 765.12 758.83 735.17 731.77 690.1 712.05 635.58 694.5 565.48 671.76 551.71 655.93 636.85 644.66 719.43 628.04 804 605.33 871.83 582.62 908.27 554.88 903.55 523.32 861.56 492.38 792.3 458.93 709.29 425.17 628.2 394.34 559.54 366.28 512.68 344.15 489.83 328.87 491.04 323.32 509.9 329.89 538.38 345.25 575.86 372.88 610.51 411.18 637.31 451.68 660.88 495.01 673.07 534.98 674.52 561.83 671.57 574.23 660.55 567.67 643.9 539.27 625.76 492.24 604.71 431.55 582 364.06 559.29 302.77 535.99 255.78 511.28 225 485.1 216.95 454.81 230.74 418.39 262.81 377.58 310.28 327.99 366.88 269.41 429.32 207.61 491.54 140.35 549.28 73.11 602.82 14.85 648.55 -30.93 686.38 -55.79 718.23 -56.59 744.1 -30.1 765.9 21.9 784.3 86.33 801.63 156.41 819.65 216.91 836.77 250.14 856.33 250.28 879.05 213.85 901.76 146.03 926.55 66.06 952.26 -7.75 977.08 -64.84 1001.06 -90.51 1022.03 -82.44 1039.59 -44.65 1051.13 16.67 1054.28 89.94 1051.46 168.11 1038.34 240.11 1014.57 299.83 986.6 346.92 951.31 378.88 912.52 398.52 866.01 408.44 850.37 408.37 900.4 415.54 956.15 421.69 1022.03 435.62 1089.52 458.33Q1089.55 458.34 1089.55 458.34"
            opacity="0.21"></path>
        <path
            d="M1042.26 576.4C1095.07 595.87 1134.74 616.71 1158.11 637.73 1166.11 657.64 1156.37 675.6 1131.33 689.21 1094.09 698.86 1047.52 700.91 996.17 693.17 941.72 679.4 888.47 654.92 839.16 620.69 792.95 584.96 752.62 545.69 718.29 508.68 688.11 483.79 662.65 472.3 640.72 479.67 621.26 509.06 603.25 558.63 585.55 624.09 568.55 697.08 550.52 768 531.05 824.73 511.59 858.28 491.59 861.47 471.89 835.99 452.87 787.42 435.46 722.82 421.19 652.28 409.38 582.66 402.78 522.36 402.95 476.03 407.27 444.99 419.66 429.52 440.35 426.61 464.14 435.83 494.31 450.91 528.49 467.26 597.94 510.89 552.88 511.19 478.26 485.58 420.47 466.11 366.81 440.39 322.65 408.88 288.56 376.97 270.33 338.72 268.33 294.81 280.22 250.8 306.03 202.29 342.19 151.92 386.48 105.57 435.34 62.54 485.11 27.8 536.04 5.2 584.15 -2.41 627.83 8.36 669.45 34.41 706.2 77.25 738.17 132.6 768.27 188.87 794.84 242.4 818.47 283.45 841.47 301.41 862.67 294.28 882.14 260.73 901.6 204 918.42 137.03 932.14 71.55 949.64 -5.63 957.13 -18.62 943.17 41 929.5 98.28 909.34 160.63 883.92 221.88 859.66 281.63 833.88 334.06 809.87 377.83 793.98 415.57 785.63 445.58 788.01 469.67 804.28 489.8 833.59 507.26 875.19 524.07 926.86 539.76 984.47 556.93 1042.26 576.4Q1042.26 576.4 1042.26 576.4"
            opacity="0.55"></path>
        <path
            d="M995.54 538.51C1078.03 570.95 1116.35 584.23 1106.76 574.97 1059.77 560.6 984.86 520.74 903.3 466.58 818.6 431.65 744.88 421.69 687.06 461.55 633.62 553.08 590.94 674.87 558.49 777.85 526.05 817.99 506.91 774.68 504.12 677.61 505.71 560.17 528.79 459.65 570.96 394.57 630.24 358.57 633.77 350.89 525.54 313.6 429.34 281.15 355.9 229.02 322.26 167.89 324.56 115.35 365.71 72.8 428.1 62.23 504.52 84.79 580.24 150.89 643.95 244.54 706.74 317.83 755.94 347.99 788.38 307.85 820.83 204.87 833.45 96.23 826.9 28.49 819.42 12.41 794.33 56.78 760.44 134.25 740.58 230.93 733.85 321.43 755.33 392.03 812.74 457.52 899.34 506.06 995.54 538.51Q995.54 538.51 995.54 538.51"
            opacity="0.50"></path>
        <path
            d="M948.55 378.02C1037.04 406.46 1031.29 379.73 960.16 358.27 899.75 367.18 840.07 400.82 789.23 465.55 738.26 553.5 697.98 651.56 672.03 730.83 646.07 769.34 636.89 752.64 642.88 694.1 648.74 609.51 667.9 519.16 694.29 441.46 711.7 375.13 723.57 327.55 719.91 294.12 691.76 267.69 640.84 243.86 572.55 217.9 495.41 191.95 431.56 166.32 391.57 147.76 371.24 136.22 378.33 143.29 405.19 175.59 445.41 219.27 493.02 282.09 538.14 347.65 585.68 387.16 625.08 393.34 651.03 354.83 676.99 275.56 687.05 188.02 684.49 119.1 684.36 73.39 677.25 67.29 671.06 92.4 678.22 139.23 698.66 197.04 738.02 250.83 797.03 307.59 871.41 352.06 948.55 378.02Q948.55 378.02 948.55 378.02"
            opacity="0.23"></path>
        <path
            d="M901.55 236.94C954.32 256.41 991.1 268.68 1009.69 277.14 1015.46 289.52 1004.94 305.33 983.35 330.38 954.24 367.32 920.78 419.55 888.94 485.01 855.43 555.96 827.04 627.1 807.57 683.83 788.1 717.38 779.4 718.8 779.18 693.22 777.27 647.68 780.35 589.53 783.95 530.47 780.02 469.24 769.89 415.59 749.85 373.54 716.99 333.3 672.32 302.78 619.55 283.32 561.76 263.85 511.35 257.27 473.91 263.78 444.62 272.08 431.41 295.35 432.33 331.06 441.05 364.6 458.81 402.11 480.48 433.38 504.55 444.7 528.08 435.38 547.55 401.83 567.02 345.1 580.58 281.85 590.25 225.17 602.32 173.98 614.94 142.4 631.73 130.97 656.33 131.44 690.19 146.01 733.75 167.37 785.46 192.65 843.76 217.47 901.55 236.94Q901.55 236.94 901.55 236.94"
            opacity="0.52"></path>
        <path
            d="M854.55 240.1C922.84 266.05 956.29 312.74 956.55 380.46 942.98 458.87 914.51 557.56 888.56 636.83 862.6 675.34 844.06 655.06 823.62 605.31 789.34 538.3 734.84 477.89 666.55 451.94 589.4 425.98 533.96 439.39 511.29 472.37 498.92 488.1 510.43 487.34 536.39 448.83 562.34 369.56 597.83 291.91 644.23 247.52 700.92 213.82 777.4 214.14 854.55 240.1Q854.55 240.1 854.55 240.1"
            opacity="0.91"></path>
    </g>
</svg>