<?xml version="1.0" encoding="UTF-8" standalone="no"?>
<!-- Created with Inkscape (http://www.inkscape.org/) -->

<svg
   xmlns:dc="http://purl.org/dc/elements/1.1/"
   xmlns:cc="http://creativecommons.org/ns#"
   xmlns:rdf="http://www.w3.org/1999/02/22-rdf-syntax-ns#"
   xmlns:svg="http://www.w3.org/2000/svg"
   xmlns="http://www.w3.org/2000/svg"
   xmlns:sodipodi="http://sodipodi.sourceforge.net/DTD/sodipodi-0.dtd"
   xmlns:inkscape="http://www.inkscape.org/namespaces/inkscape"
   id="svg2"
   sodipodi:docname="MovieClapperEng.svg"
   inkscape:export-filename="C:\All\klaps.png"
   viewBox="0 0 263.09 296.77"
   sodipodi:version="0.32"
   inkscape:export-xdpi="99"
   version="1.0"
   inkscape:output_extension="org.inkscape.output.svg.inkscape"
   inkscape:export-ydpi="99"
   inkscape:version="0.91 r13725">
  <defs
     id="defs4">
    <filter
       id="filter3205"
       inkscape:collect="always">
      <feGaussianBlur
         id="feGaussianBlur3207"
         stdDeviation="0.69811522"
         inkscape:collect="always" />
    </filter>
    <filter
       id="filter3434"
       inkscape:collect="always">
      <feGaussianBlur
         id="feGaussianBlur3436"
         stdDeviation="2.297086"
         inkscape:collect="always" />
    </filter>
    <radialGradient
       id="radialGradient3532"
       gradientUnits="userSpaceOnUse"
       cy="458.79"
       cx="107.14"
       r="8.5714"
       inkscape:collect="always">
      <stop
         id="stop3234"
         style="stop-color:#f8f8f8"
         offset="0" />
      <stop
         id="stop3236"
         style="stop-color:#454545"
         offset="1" />
    </radialGradient>
    <radialGradient
       id="radialGradient2451"
       gradientUnits="userSpaceOnUse"
       cy="240.66"
       cx="358.82"
       gradientTransform="matrix(1.832 -.40741 .26112 1.1742 -686.27 124.18)"
       r="127.5"
       inkscape:collect="always">
      <stop
         id="stop3189"
         style="stop-color:#ffffff"
         offset="0" />
      <stop
         id="stop3191"
         style="stop-color:#ffffff;stop-opacity:0"
         offset="1" />
    </radialGradient>
  </defs>
  <sodipodi:namedview
     id="base"
     bordercolor="#666666"
     inkscape:pageshadow="2"
     guidetolerance="10"
     pagecolor="#ffffff"
     gridtolerance="10000"
     inkscape:window-height="1035"
     inkscape:zoom="0.8625"
     objecttolerance="10"
     showgrid="false"
     borderopacity="1.0"
     inkscape:current-layer="layer1"
     inkscape:cx="37.587566"
     inkscape:cy="67.940317"
     inkscape:window-y="1"
     inkscape:window-x="4"
     inkscape:window-width="1916"
     inkscape:pageopacity="0.0"
     inkscape:document-units="px"
     inkscape:window-maximized="1" />
  <g
     id="layer1"
     inkscape:label="Layer 1"
     inkscape:groupmode="layer"
     transform="translate(-5.4974 -4.8686)">
    <g
       id="g12990">
      <path
         d="m29.866 94.226c-10.684 0-19.281 9.274-19.281 20.764v20.73c0 0.66 0.008 1.31 0.062 1.95-0.056 0.61-0.062 1.21-0.062 1.83v139.34c0 10.97 8.92 19.8 20 19.8h215c11.08 0 20-8.83 20-19.8v-139.34c0-10.97-8.92-19.81-20-19.81h-196.43l-0.003-4.7c0-11.49-8.597-20.764-19.281-20.764z"
         style="filter:url(#filter3434);fill:#000000"
         id="path3428" />
      <path
         d="m27.866 90.205c-10.684 0-19.281 9.361-19.281 20.965l-0.0002 20.94c0 0.66 0.0079 1.33 0.0625 1.97-0.0559 0.61-0.0625 1.22-0.0625 1.84v140.72c0 11.08 8.9202 20 20 20h215c11.08 0 20-8.92 20-20v-140.72c0-11.08-8.92-20-20-20h-196.43l-0.003-4.75c0-11.604-8.597-20.965-19.281-20.965z"
         style="fill:#000000"
         id="rect2396" />
      <path
         d="m27.866 90.205c-10.684 0-19.281 9.361-19.281 20.965l-0.0002 20.94c0 0.66 0.0079 1.33 0.0625 1.97-0.0559 0.61-0.0625 1.22-0.0625 1.84v140.72c0 11.08 8.9202 20 20 20h215c11.08 0 20-8.92 20-20v-140.72c0-11.08-8.92-20-20-20h-196.43l-0.003-4.75c0-11.604-8.597-20.965-19.281-20.965z"
         style="opacity:.22261;fill:url(#radialGradient2451)"
         id="path3185" />
      <rect
         x="307.16"
         y="147.36"
         width="254.96"
         height="24.286"
         transform="matrix(.99720 0 0 .94118 -296.64 -22.76)"
         style="filter:url(#filter3205);fill:#717171"
         id="rect3195" />
      <g
         transform="translate(-298.57 -32.857)"
         id="g3209">
        <rect
           x="307.16"
           y="148.08"
           width="254.96"
           height="22.143"
           style="fill:#000000"
           id="rect3170" />
        <rect
           x="620.91"
           y="176.22"
           width="33.175"
           height="26.351"
           transform="matrix(1 0 -.54213 .84030 0 0)"
           style="fill:#ffffff"
           id="rect3174" />
        <rect
           x="561.98"
           y="176.22"
           width="33.175"
           height="26.351"
           transform="matrix(1 0 -.54213 .84030 0 0)"
           style="fill:#ffffff"
           id="rect3176" />
        <rect
           x="501.62"
           y="176.22"
           width="33.175"
           height="26.351"
           transform="matrix(1 0 -.54213 .84030 0 0)"
           style="fill:#ffffff"
           id="rect3178" />
        <rect
           x="442.34"
           y="176.22"
           width="33.175"
           height="26.351"
           transform="matrix(1 0 -.54213 .84030 0 0)"
           style="fill:#ffffff"
           id="rect3180" />
      </g>
      <rect
         x="307.16"
         y="147.36"
         width="254.96"
         height="24.286"
         transform="matrix(.94150 -.32862 .31015 .88860 -329.4 66.313)"
         style="filter:url(#filter3205);fill:#717171"
         id="rect3228" />
      <g
         transform="matrix(.93119 -.36452 -.36452 -.93119 -217.8 368.28)"
         id="g3216">
        <rect
           x="307.16"
           y="148.08"
           width="254.96"
           height="22.143"
           style="fill:#000000"
           id="rect3218" />
        <rect
           x="620.91"
           y="176.22"
           width="33.175"
           height="26.351"
           transform="matrix(1 0 -.54213 .84030 0 0)"
           style="fill:#ffffff"
           id="rect3220" />
        <rect
           x="561.98"
           y="176.22"
           width="33.175"
           height="26.351"
           transform="matrix(1 0 -.54213 .84030 0 0)"
           style="fill:#ffffff"
           id="rect3222" />
        <rect
           x="501.62"
           y="176.22"
           width="33.175"
           height="26.351"
           transform="matrix(1 0 -.54213 .84030 0 0)"
           style="fill:#ffffff"
           id="rect3224" />
        <rect
           x="442.34"
           y="176.22"
           width="33.175"
           height="26.351"
           transform="matrix(1 0 -.54213 .84030 0 0)"
           style="fill:#ffffff"
           id="rect3226" />
      </g>
      <path
         sodipodi:cx="107.14286"
         sodipodi:cy="458.79074"
         transform="matrix(.39583 0 0 .39583 -14.732 -79.421)"
         d="m 115.71429,458.79074 a 8.5714283,8.5714283 0 0 1 -8.57143,8.57143 8.5714283,8.5714283 0 0 1 -8.571428,-8.57143 8.5714283,8.5714283 0 0 1 8.571428,-8.57143 8.5714283,8.5714283 0 0 1 8.57143,8.57143 z"
         sodipodi:type="arc"
         style="fill:url(#radialGradient3532)"
         sodipodi:ry="8.5714283"
         sodipodi:rx="8.5714283"
         id="path3230" />
      <path
         d="m24.286 258.43l220.71 1.43"
         style="stroke:#ffffff;stroke-width:3;fill:none"
         id="path3262" />
      <path
         d="m81.429 258.79v32.86"
         style="stroke:#ffffff;stroke-width:3;fill:none"
         id="path3272" />
      <path
         d="m178.57 258.79v32.14"
         style="stroke:#ffffff;stroke-width:3;fill:none"
         id="path3274" />
      <path
         d="m108.52 183.1l135.36-1.01"
         style="stroke-linejoin:round;stroke:#ffffff;stroke-linecap:round;stroke-width:3;fill:none"
         id="path3420" />
      <g
         id="text12919"
         style="font-style:normal;font-weight:normal;font-size:143.3938446px;line-height:125%;font-family:sans-serif;letter-spacing:0px;word-spacing:0px;fill:#000000;fill-opacity:1;stroke:none;stroke-width:1px;stroke-linecap:butt;stroke-linejoin:miter;stroke-opacity:1"
         transform="matrix(0.61177827,0,0,0.80665373,8.7200044,36.941978)">
        <path
           inkscape:connector-curvature="0"
           id="path12963"
           style="font-style:normal;font-variant:normal;font-weight:bold;font-stretch:normal;font-size:17.92423058px;font-family:sans-serif;-inkscape-font-specification:'sans-serif Bold';fill:#ffffff;fill-opacity:1"
           d="m 30.594649,144.32942 q 0,1.92545 -1.636636,3.13324 -1.627884,1.19903 -4.428545,1.19903 -1.619133,0 -2.826918,-0.28007 -1.199033,-0.28881 -2.249281,-0.72642 l 0,-3.12448 0.367587,0 q 1.041496,0.83144 2.32805,1.2778 1.295305,0.44635 2.485586,0.44635 0.306323,0 0.80519,-0.0525 0.498868,-0.0525 0.813943,-0.17504 0.38509,-0.15754 0.630148,-0.39384 0.25381,-0.23631 0.25381,-0.70017 0,-0.42885 -0.367587,-0.73517 -0.358834,-0.31508 -1.059,-0.48137 -0.735173,-0.17504 -1.557867,-0.32382 -0.813942,-0.15754 -1.531612,-0.39385 -1.645388,-0.53387 -2.37181,-1.44409 -0.717669,-0.91896 -0.717669,-2.27553 0,-1.82043 1.627884,-2.96695 1.636637,-1.15528 4.200992,-1.15528 1.286553,0 2.538099,0.25381 1.260297,0.24506 2.179264,0.6214 l 0,3.00196 -0.358834,0 q -0.787686,-0.63015 -1.934207,-1.05025 -1.137769,-0.42885 -2.328049,-0.42885 -0.4201,0 -0.840199,0.0613 -0.411347,0.0525 -0.796438,0.21005 -0.34133,0.13128 -0.586388,0.4026 -0.245058,0.26256 -0.245058,0.60389 0,0.51637 0.393843,0.79644 0.393843,0.27131 1.487851,0.49887 0.71767,0.14878 1.374074,0.28881 0.665157,0.14004 1.426587,0.3851 1.496603,0.49011 2.205521,1.33906 0.717669,0.8402 0.717669,2.18802 z" />
        <path
           inkscape:connector-curvature="0"
           id="path12965"
           style="font-style:normal;font-variant:normal;font-weight:bold;font-stretch:normal;font-size:17.92423058px;font-family:sans-serif;-inkscape-font-specification:'sans-serif Bold';fill:#ffffff;fill-opacity:1"
           d="m 43.066343,137.91415 -4.069711,0 0,10.51123 -3.360793,0 0,-10.51123 -4.069711,0 0,-2.52059 11.500215,0 0,2.52059 z" />
        <path
           inkscape:connector-curvature="0"
           id="path12967"
           style="font-style:normal;font-variant:normal;font-weight:bold;font-stretch:normal;font-size:17.92423058px;font-family:sans-serif;-inkscape-font-specification:'sans-serif Bold';fill:#ffffff;fill-opacity:1"
           d="m 56.500765,143.70802 q 0,2.41557 -1.470347,3.70212 -1.470347,1.28656 -4.332273,1.28656 -2.861925,0 -4.332272,-1.28656 -1.461595,-1.28655 -1.461595,-3.69337 l 0,-8.32321 3.378297,0 0,8.13067 q 0,1.35657 0.568884,2.02172 0.568885,0.66516 1.846686,0.66516 1.260298,0 1.837934,-0.6389 0.586388,-0.6389 0.586388,-2.04798 l 0,-8.13067 3.378298,0 0,8.31446 z" />
        <path
           inkscape:connector-curvature="0"
           id="path12969"
           style="font-style:normal;font-variant:normal;font-weight:bold;font-stretch:normal;font-size:17.92423058px;font-family:sans-serif;-inkscape-font-specification:'sans-serif Bold';fill:#ffffff;fill-opacity:1"
           d="m 71.930655,141.9226 q 0,1.82043 -0.831447,3.26452 -0.831446,1.43534 -2.100495,2.20552 -0.953976,0.57764 -2.091744,0.80519 -1.137769,0.22755 -2.695636,0.22755 l -4.594835,0 0,-13.03182 4.726116,0 q 1.592876,0 2.748148,0.27131 1.155273,0.26256 1.942959,0.75268 1.347818,0.82269 2.118,2.22303 0.778934,1.39157 0.778934,3.28202 z m -3.47457,-0.0263 q 0,-1.28655 -0.472612,-2.19676 -0.46386,-0.91897 -1.479099,-1.43534 -0.516372,-0.25381 -1.059,-0.34133 -0.533876,-0.0963 -1.619132,-0.0963 l -0.848951,0 0,8.15693 0.848951,0 q 1.199033,0 1.759165,-0.10503 0.560132,-0.11377 1.094008,-0.40259 0.918967,-0.52513 1.347818,-1.40033 0.428852,-0.88396 0.428852,-2.17927 z" />
        <path
           inkscape:connector-curvature="0"
           id="path12971"
           style="font-style:normal;font-variant:normal;font-weight:bold;font-stretch:normal;font-size:17.92423058px;font-family:sans-serif;-inkscape-font-specification:'sans-serif Bold';fill:#ffffff;fill-opacity:1"
           d="m 81.540424,148.42538 -7.631801,0 0,-2.31054 2.135504,0 0,-8.41074 -2.135504,0 0,-2.31054 7.631801,0 0,2.31054 -2.135504,0 0,8.41074 2.135504,0 0,2.31054 z" />
        <path
           inkscape:connector-curvature="0"
           id="path12973"
           style="font-style:normal;font-variant:normal;font-weight:bold;font-stretch:normal;font-size:17.92423058px;font-family:sans-serif;-inkscape-font-specification:'sans-serif Bold';fill:#ffffff;fill-opacity:1"
           d="m 96.970317,141.91385 q 0,3.11573 -1.785421,4.95367 -1.785421,1.82918 -4.936165,1.82918 -3.141992,0 -4.927413,-1.82918 -1.785421,-1.83794 -1.785421,-4.95367 0,-3.14199 1.785421,-4.96242 1.785421,-1.82919 4.927413,-1.82919 3.133239,0 4.927413,1.82919 1.794173,1.82043 1.794173,4.96242 z m -4.454801,3.29953 q 0.490116,-0.59514 0.726421,-1.40033 0.236306,-0.81395 0.236306,-1.90795 0,-1.17278 -0.271314,-1.99548 -0.271314,-0.82269 -0.708917,-1.33031 -0.446356,-0.52512 -1.032744,-0.76143 -0.577636,-0.2363 -1.207785,-0.2363 -0.638901,0 -1.207785,0.22755 -0.560132,0.22755 -1.032744,0.75268 -0.437603,0.49011 -0.717669,1.35657 -0.271314,0.8577 -0.271314,1.99547 0,1.16402 0.262562,1.98672 0.271314,0.81394 0.708917,1.33031 0.437603,0.51637 1.023992,0.76143 0.586388,0.24506 1.234041,0.24506 0.647653,0 1.234041,-0.24506 0.586389,-0.25381 1.023992,-0.77893 z" />
      </g>
      <g
         id="text12923"
         style="font-style:normal;font-weight:normal;font-size:117.80213928px;line-height:125%;font-family:sans-serif;letter-spacing:0px;word-spacing:0px;fill:#000000;fill-opacity:1;stroke:none;stroke-width:1px;stroke-linecap:butt;stroke-linejoin:miter;stroke-opacity:1"
         transform="scale(0.96750855,1.0335826)">
        <path
           id="path12976"
           style="font-style:normal;font-variant:normal;font-weight:bold;font-stretch:normal;font-size:14.72526741px;font-family:sans-serif;-inkscape-font-specification:'sans-serif Bold';fill:#ffffff;fill-opacity:1"
           d="m 24.07061,179.28954 q -1.193552,0 -2.207352,-0.35232 -1.00661,-0.35231 -1.732808,-1.04975 -0.726197,-0.69743 -1.128841,-1.74 -0.395454,-1.04256 -0.395454,-2.40867 0,-1.27264 0.381074,-2.30801 0.381074,-1.03537 1.107271,-1.77595 0.697437,-0.71182 1.725617,-1.10008 1.035371,-0.38827 2.257683,-0.38827 0.675867,0 1.215122,0.0791 0.546446,0.0719 1.00661,0.19413 0.481735,0.13661 0.869999,0.30917 0.395454,0.16537 0.690247,0.30917 l 0,2.59562 -0.316363,0 q -0.201322,-0.17256 -0.510496,-0.40983 -0.301983,-0.23728 -0.690246,-0.46736 -0.395454,-0.23008 -0.855619,-0.38826 -0.460165,-0.15818 -0.98504,-0.15818 -0.582396,0 -1.107271,0.18694 -0.524875,0.17975 -0.97066,0.60396 -0.424214,0.40984 -0.690247,1.0857 -0.258842,0.67587 -0.258842,1.63934 0,1.00661 0.280413,1.68248 0.287603,0.67586 0.719007,1.06413 0.438594,0.39545 0.97785,0.56801 0.539255,0.16538 1.06413,0.16538 0.503305,0 0.99223,-0.151 0.496115,-0.15099 0.913139,-0.40983 0.352314,-0.20851 0.654297,-0.44578 0.301983,-0.23728 0.496115,-0.40984 l 0.287603,0 0,2.55967 q -0.402644,0.17975 -0.769338,0.33793 -0.366694,0.15818 -0.769338,0.27322 -0.524875,0.15099 -0.98504,0.23009 -0.460164,0.0791 -1.265452,0.0791 z" />
        <path
           id="path12978"
           style="font-style:normal;font-variant:normal;font-weight:bold;font-stretch:normal;font-size:14.72526741px;font-family:sans-serif;-inkscape-font-specification:'sans-serif Bold';fill:#ffffff;fill-opacity:1"
           d="m 40.312982,173.73161 q 0,2.55967 -1.466774,4.06958 -1.466775,1.50273 -4.055201,1.50273 -2.581236,0 -4.04801,-1.50273 -1.466775,-1.50991 -1.466775,-4.06958 0,-2.58124 1.466775,-4.07677 1.466774,-1.50273 4.04801,-1.50273 2.574046,0 4.048011,1.50273 1.473964,1.49553 1.473964,4.07677 z m -3.659746,2.71066 q 0.402644,-0.48893 0.596776,-1.15041 0.194132,-0.66868 0.194132,-1.56744 0,-0.96347 -0.222893,-1.63934 -0.222892,-0.67586 -0.582395,-1.09289 -0.366694,-0.4314 -0.848429,-0.62553 -0.474545,-0.19414 -0.99223,-0.19414 -0.524875,0 -0.99223,0.18695 -0.460164,0.18694 -0.848428,0.61834 -0.359504,0.40265 -0.589586,1.11446 -0.222892,0.70463 -0.222892,1.63934 0,0.95628 0.215702,1.63215 0.222892,0.66867 0.582396,1.09289 0.359503,0.42421 0.841238,0.62553 0.481735,0.20133 1.0138,0.20133 0.532066,0 1.0138,-0.20133 0.481735,-0.20851 0.841239,-0.63991 z" />
        <path
           id="path12980"
           style="font-style:normal;font-variant:normal;font-weight:bold;font-stretch:normal;font-size:14.72526741px;font-family:sans-serif;-inkscape-font-specification:'sans-serif Bold';fill:#ffffff;fill-opacity:1"
           d="m 53.664946,179.08102 -2.746607,0 0,-7.1685 -1.98446,4.65198 -1.905369,0 -1.98446,-4.65198 0,7.1685 -2.602806,0 0,-10.70601 3.206772,0 2.408674,5.37098 2.401484,-5.37098 3.206772,0 0,10.70601 z" />
        <path
           id="path12982"
           style="font-style:normal;font-variant:normal;font-weight:bold;font-stretch:normal;font-size:14.72526741px;font-family:sans-serif;-inkscape-font-specification:'sans-serif Bold';fill:#ffffff;fill-opacity:1"
           d="m 67.613688,179.08102 -2.746607,0 0,-7.1685 -1.98446,4.65198 -1.905369,0 -1.98446,-4.65198 0,7.1685 -2.602806,0 0,-10.70601 3.206772,0 2.408674,5.37098 2.401484,-5.37098 3.206772,0 0,10.70601 z" />
        <path
           id="path12984"
           style="font-style:normal;font-variant:normal;font-weight:bold;font-stretch:normal;font-size:14.72526741px;font-family:sans-serif;-inkscape-font-specification:'sans-serif Bold';fill:#ffffff;fill-opacity:1"
           d="m 78.082432,179.08102 -7.743708,0 0,-10.70601 7.743708,0 0,2.07074 -4.9971,0 0,1.84785 4.637596,0 0,2.07074 -4.637596,0 0,2.64594 4.9971,0 0,2.07074 z" />
        <path
           id="path12986"
           style="font-style:normal;font-variant:normal;font-weight:bold;font-stretch:normal;font-size:14.72526741px;font-family:sans-serif;-inkscape-font-specification:'sans-serif Bold';fill:#ffffff;fill-opacity:1"
           d="m 90.140183,179.08102 -2.660327,0 -4.544125,-7.34825 0,7.34825 -2.530906,0 0,-10.70601 3.300243,0 3.904209,6.13313 0,-6.13313 2.530906,0 0,10.70601 z" />
        <path
           id="path12988"
           style="font-style:normal;font-variant:normal;font-weight:bold;font-stretch:normal;font-size:14.72526741px;font-family:sans-serif;-inkscape-font-specification:'sans-serif Bold';fill:#ffffff;fill-opacity:1"
           d="m 101.26322,170.44575 -3.34338,0 0,8.63527 -2.760988,0 0,-8.63527 -3.343383,0 0,-2.07074 9.447751,0 0,2.07074 z" />
      </g>
      <g
         id="text12927"
         style="font-style:normal;font-weight:normal;font-size:117.80213928px;line-height:125%;font-family:sans-serif;letter-spacing:0px;word-spacing:0px;fill:#000000;fill-opacity:1;stroke:none;stroke-width:1px;stroke-linecap:butt;stroke-linejoin:miter;stroke-opacity:1"
         transform="scale(0.96750855,1.0335826)">
        <path
           id="path12936"
           style="font-style:normal;font-variant:normal;font-weight:bold;font-stretch:normal;font-size:14.72526741px;font-family:sans-serif;-inkscape-font-specification:'sans-serif Bold';fill:#ffffff;fill-opacity:1"
           d="m 45.276677,240.27774 q 0,1.49554 -0.683057,2.6819 -0.683056,1.17917 -1.725617,1.8119 -0.783718,0.47454 -1.718427,0.66148 -0.934709,0.18694 -2.214542,0.18694 l -3.774788,0 0,-10.70601 3.882639,0 q 1.308593,0 2.257682,0.22289 0.94909,0.2157 1.596196,0.61835 1.107271,0.67586 1.739998,1.82627 0.639916,1.14323 0.639916,2.69628 z m -2.854458,-0.0216 q 0,-1.05694 -0.388264,-1.80471 -0.381074,-0.75495 -1.215122,-1.17917 -0.424215,-0.20851 -0.869999,-0.28041 -0.438595,-0.0791 -1.330163,-0.0791 l -0.697437,0 0,6.70114 0.697437,0 q 0.985039,0 1.445204,-0.0863 0.460165,-0.0935 0.898759,-0.33074 0.754958,-0.4314 1.107271,-1.15041 0.352314,-0.7262 0.352314,-1.79033 z" />
        <path
           id="path12938"
           style="font-style:normal;font-variant:normal;font-weight:bold;font-stretch:normal;font-size:14.72526741px;font-family:sans-serif;-inkscape-font-specification:'sans-serif Bold';fill:#ffffff;fill-opacity:1"
           d="m 57.276908,245.61996 -2.854459,0 -0.740577,-2.16421 -3.96892,0 -0.740578,2.16421 -2.782557,0 3.954539,-10.70601 3.178012,0 3.95454,10.70601 z m -4.263713,-4.1271 -1.315783,-3.8395 -1.315783,3.8395 2.631566,0 z" />
        <path
           id="path12940"
           style="font-style:normal;font-variant:normal;font-weight:bold;font-stretch:normal;font-size:14.72526741px;font-family:sans-serif;-inkscape-font-specification:'sans-serif Bold';fill:#ffffff;fill-opacity:1"
           d="m 67.206396,236.98469 -3.343384,0 0,8.63527 -2.760987,0 0,-8.63527 -3.343384,0 0,-2.07074 9.447755,0 0,2.07074 z" />
        <path
           id="path12942"
           style="font-style:normal;font-variant:normal;font-weight:bold;font-stretch:normal;font-size:14.72526741px;font-family:sans-serif;-inkscape-font-specification:'sans-serif Bold';fill:#ffffff;fill-opacity:1"
           d="m 76.611011,245.61996 -7.743707,0 0,-10.70601 7.743707,0 0,2.07074 -4.9971,0 0,1.84785 4.637597,0 0,2.07074 -4.637597,0 0,2.64594 4.9971,0 0,2.07074 z" />
        <path
           id="path12944"
           style="font-style:normal;font-variant:normal;font-weight:bold;font-stretch:normal;font-size:14.72526741px;font-family:sans-serif;-inkscape-font-specification:'sans-serif Bold';fill:#ffffff;fill-opacity:1"
           d="m 117.70227,242.25501 q 0,1.58182 -1.34454,2.57405 -1.33736,0.98504 -3.63818,0.98504 -1.33016,0 -2.32239,-0.23009 -0.98504,-0.23727 -1.84785,-0.59677 l 0,-2.56686 0.30198,0 q 0.85562,0.68306 1.91256,1.04975 1.06413,0.3667 2.04198,0.3667 0.25165,0 0.66149,-0.0431 0.40983,-0.0431 0.66867,-0.14381 0.31637,-0.12942 0.51769,-0.32355 0.20851,-0.19413 0.20851,-0.5752 0,-0.35232 -0.30198,-0.60397 -0.29479,-0.25884 -0.87,-0.39545 -0.60397,-0.14381 -1.27983,-0.26604 -0.66868,-0.12942 -1.25827,-0.32355 -1.35173,-0.43859 -1.9485,-1.18636 -0.58959,-0.75496 -0.58959,-1.86942 0,-1.49554 1.33735,-2.43744 1.34455,-0.94908 3.45124,-0.94908 1.05694,0 2.08512,0.20851 1.03537,0.20132 1.79033,0.51049 l 0,2.4662 -0.2948,0 q -0.6471,-0.51769 -1.589,-0.86281 -0.93471,-0.35231 -1.91256,-0.35231 -0.34513,0 -0.69025,0.0503 -0.33793,0.0431 -0.6543,0.17256 -0.28041,0.10785 -0.48173,0.33074 -0.20132,0.2157 -0.20132,0.49612 0,0.42421 0.32355,0.65429 0.32355,0.22289 1.22231,0.40984 0.58959,0.12223 1.12884,0.23727 0.54645,0.11504 1.17199,0.31636 1.2295,0.40265 1.81189,1.10008 0.58959,0.69025 0.58959,1.79752 z" />
        <path
           id="path12946"
           style="font-style:normal;font-variant:normal;font-weight:bold;font-stretch:normal;font-size:14.72526741px;font-family:sans-serif;-inkscape-font-specification:'sans-serif Bold';fill:#ffffff;fill-opacity:1"
           d="m 124.41061,245.82848 q -1.19355,0 -2.20735,-0.35232 -1.00661,-0.35231 -1.73281,-1.04975 -0.7262,-0.69743 -1.12884,-1.73999 -0.39545,-1.04257 -0.39545,-2.40868 0,-1.27264 0.38107,-2.30801 0.38107,-1.03537 1.10727,-1.77595 0.69744,-0.71182 1.72562,-1.10008 1.03537,-0.38826 2.25768,-0.38826 0.67587,0 1.21512,0.0791 0.54645,0.0719 1.00661,0.19413 0.48174,0.13661 0.87,0.30917 0.39545,0.16537 0.69025,0.30917 l 0,2.59562 -0.31637,0 q -0.20132,-0.17256 -0.51049,-0.40983 -0.30198,-0.23728 -0.69025,-0.46736 -0.39545,-0.23008 -0.85562,-0.38826 -0.46016,-0.15818 -0.98504,-0.15818 -0.58239,0 -1.10727,0.18694 -0.52487,0.17975 -0.97066,0.60396 -0.42421,0.40984 -0.69024,1.0857 -0.25885,0.67587 -0.25885,1.63934 0,1.00661 0.28042,1.68248 0.2876,0.67586 0.719,1.06413 0.4386,0.39545 0.97785,0.56801 0.53926,0.16538 1.06413,0.16538 0.50331,0 0.99223,-0.151 0.49612,-0.15099 0.91314,-0.40983 0.35232,-0.20851 0.6543,-0.44578 0.30198,-0.23728 0.49612,-0.40984 l 0.2876,0 0,2.55967 q -0.40265,0.17975 -0.76934,0.33793 -0.36669,0.15818 -0.76934,0.27322 -0.52487,0.151 -0.98504,0.23009 -0.46016,0.0791 -1.26545,0.0791 z" />
        <path
           id="path12948"
           style="font-style:normal;font-variant:normal;font-weight:bold;font-stretch:normal;font-size:14.72526741px;font-family:sans-serif;-inkscape-font-specification:'sans-serif Bold';fill:#ffffff;fill-opacity:1"
           d="m 137.98547,245.61996 -7.74371,0 0,-10.70601 7.74371,0 0,2.07074 -4.9971,0 0,1.84785 4.63759,0 0,2.07074 -4.63759,0 0,2.64594 4.9971,0 0,2.07074 z" />
        <path
           id="path12950"
           style="font-style:normal;font-variant:normal;font-weight:bold;font-stretch:normal;font-size:14.72526741px;font-family:sans-serif;-inkscape-font-specification:'sans-serif Bold';fill:#ffffff;fill-opacity:1"
           d="m 150.04322,245.61996 -2.66033,0 -4.54413,-7.34825 0,7.34825 -2.5309,0 0,-10.70601 3.30024,0 3.90421,6.13313 0,-6.13313 2.53091,0 0,10.70601 z" />
        <path
           id="path12952"
           style="font-style:normal;font-variant:normal;font-weight:bold;font-stretch:normal;font-size:14.72526741px;font-family:sans-serif;-inkscape-font-specification:'sans-serif Bold';fill:#ffffff;fill-opacity:1"
           d="m 160.53353,245.61996 -7.74371,0 0,-10.70601 7.74371,0 0,2.07074 -4.9971,0 0,1.84785 4.6376,0 0,2.07074 -4.6376,0 0,2.64594 4.9971,0 0,2.07074 z" />
        <path
           id="path12954"
           style="font-style:normal;font-variant:normal;font-weight:bold;font-stretch:normal;font-size:14.72526741px;font-family:sans-serif;-inkscape-font-specification:'sans-serif Bold';fill:#ffffff;fill-opacity:1"
           d="m 206.46371,236.98469 -3.34338,0 0,8.63527 -2.76099,0 0,-8.63527 -3.34338,0 0,-2.07074 9.44775,0 0,2.07074 z" />
        <path
           id="path12956"
           style="font-style:normal;font-variant:normal;font-weight:bold;font-stretch:normal;font-size:14.72526741px;font-family:sans-serif;-inkscape-font-specification:'sans-serif Bold';fill:#ffffff;fill-opacity:1"
           d="m 218.01816,245.61996 -2.85446,0 -0.74058,-2.16421 -3.96892,0 -0.74058,2.16421 -2.78256,0 3.95454,-10.70601 3.17802,0 3.95454,10.70601 z m -4.26372,-4.1271 -1.31578,-3.8395 -1.31578,3.8395 2.63156,0 z" />
        <path
           id="path12958"
           style="font-style:normal;font-variant:normal;font-weight:bold;font-stretch:normal;font-size:14.72526741px;font-family:sans-serif;-inkscape-font-specification:'sans-serif Bold';fill:#ffffff;fill-opacity:1"
           d="m 229.56541,245.61996 -3.38652,0 -3.19959,-4.28528 -0.6471,0.78372 0,3.50156 -2.76099,0 0,-10.70601 2.76099,0 0,4.84611 3.82512,-4.84611 3.19958,0 -4.18462,4.95396 4.39313,5.75205 z" />
        <path
           id="path12960"
           style="font-style:normal;font-variant:normal;font-weight:bold;font-stretch:normal;font-size:14.72526741px;font-family:sans-serif;-inkscape-font-specification:'sans-serif Bold';fill:#ffffff;fill-opacity:1"
           d="m 238.64648,245.61996 -7.74371,0 0,-10.70601 7.74371,0 0,2.07074 -4.9971,0 0,1.84785 4.63759,0 0,2.07074 -4.63759,0 0,2.64594 4.9971,0 0,2.07074 z" />
      </g>
    </g>
  </g>
  <metadata
     id="metadata12377">
    <rdf:RDF>
      <cc:Work>
        <dc:format>image/svg+xml</dc:format>
        <dc:type
           rdf:resource="http://purl.org/dc/dcmitype/StillImage" />
        <cc:license
           rdf:resource="http://creativecommons.org/licenses/publicdomain/" />
        <dc:publisher>
          <cc:Agent
             rdf:about="http://openclipart.org/">
            <dc:title>Openclipart</dc:title>
          </cc:Agent>
        </dc:publisher>
        <dc:title>Klaps</dc:title>
        <dc:date>2008-10-29T12:07:00</dc:date>
        <dc:description />
        <dc:source>https://openclipart.org/detail/19837/klaps-by-anomaly</dc:source>
        <dc:creator>
          <cc:Agent>
            <dc:title>Anomaly</dc:title>
          </cc:Agent>
        </dc:creator>
        <dc:subject>
          <rdf:Bag>
            <rdf:li>cinema</rdf:li>
            <rdf:li>kino</rdf:li>
            <rdf:li>klaps</rdf:li>
            <rdf:li>klip</rdf:li>
            <rdf:li>movie</rdf:li>
          </rdf:Bag>
        </dc:subject>
      </cc:Work>
      <cc:License
         rdf:about="http://creativecommons.org/licenses/publicdomain/">
        <cc:permits
           rdf:resource="http://creativecommons.org/ns#Reproduction" />
        <cc:permits
           rdf:resource="http://creativecommons.org/ns#Distribution" />
        <cc:permits
           rdf:resource="http://creativecommons.org/ns#DerivativeWorks" />
      </cc:License>
    </rdf:RDF>
  </metadata>
</svg>
